PathFileType	4	(X/Y/Z)	/Users/itak/Documents/Research/Walk-IL/dataset/trc/00207_00008.trc
DataRate	CameraRate	NumFrames	NumMarkers	Units	OrigDataRate	OrigDataStartFrame	OrigNumFrames
100.000000	100.000000	4	53	mm	100.000000	192	514
Frame#	Time	RPSI			LPSI			L3			STRN			T10			C7			CLAV			RBAK			LBAK			LSHO			LUPA			LAEL			LAOL			LWTS			LWPS			LFRA			LIFD			LHPS			LHTS			RSHO			RUPA			RAEL			RAOL			RWTS			RWPS			RFRA			RIFD			RHTS			RHPS			RBHD			LFHD			RFHD			LBHD			LHIP			RHIP			RASI			LASI			LKNE			LTHI			LANK			LTIP			LTOE			LMT1			LMT5			LHEE			RKNE			RTHI			RANK			RTIP			RTOE			RMT1			RMT5			RHEE			
		X1	Y1	Z1	X2	Y2	Z2	X3	Y3	Z3	X4	Y4	Z4	X5	Y5	Z5	X6	Y6	Z6	X7	Y7	Z7	X8	Y8	Z8	X9	Y9	Z9	X10	Y10	Z10	X11	Y11	Z11	X12	Y12	Z12	X13	Y13	Z13	X14	Y14	Z14	X15	Y15	Z15	X16	Y16	Z16	X17	Y17	Z17	X18	Y18	Z18	X19	Y19	Z19	X20	Y20	Z20	X21	Y21	Z21	X22	Y22	Z22	X23	Y23	Z23	X24	Y24	Z24	X25	Y25	Z25	X26	Y26	Z26	X27	Y27	Z27	X28	Y28	Z28	X29	Y29	Z29	X30	Y30	Z30	X31	Y31	Z31	X32	Y32	Z32	X33	Y33	Z33	X34	Y34	Z34	X35	Y35	Z35	X36	Y36	Z36	X37	Y37	Z37	X38	Y38	Z38	X39	Y39	Z39	X40	Y40	Z40	X41	Y41	Z41	X42	Y42	Z42	X43	Y43	Z43	X44	Y44	Z44	X45	Y45	Z45	X46	Y46	Z46	X47	Y47	Z47	X48	Y48	Z48	X49	Y49	Z49	X50	Y50	Z50	X51	Y51	Z51	X52	Y52	Z52	X53	Y53	Z53	

193	1.92	-963.74951171875	1049.88330078125	-477.5685119628906	-927.9473876953125	1050.630126953125	-594.7012329101562	-944.8884887695312	1089.4169921875	-530.2691650390625	-681.5374145507812	1286.36669921875	-459.8961486816406	-966.7698364257812	1250.296264648438	-533.9593505859375	-886.8646240234375	1515.534057617188	-525.0526123046875	-698.9869995117188	1402.0693359375	-475.3272094726562	-983.8388671875	1344.416748046875	-436.3601684570312	-869.96484375	1489.55712890625	-624.4077758789062	-778.5215454101562	1473.802001953125	-682.6952514648438	-800.6535034179688	1344.960083007812	-762.8529052734375	-790.6018676757812	1128.189208984375	-786.6390991210938	-848.12890625	1108.215698242188	-723.0200805664062	-636.1826782226562	933.1204223632812	-723.8328857421875	-704.2864379882812	886.7456665039062	-772.7635498046875	-753.4175415039062	1020.684509277344	-792.0081176757812	-583.3186645507812	762.1742553710938	-679.8418579101562	-665.4946899414062	826.3036499023438	-760.3822021484375	-604.3587646484375	857.8676147460938	-734.791748046875	-868.3770751953125	1492.466430664062	-334.8267822265625	-904.1336059570312	1427.53955078125	-271.08447265625	-925.8912963867188	1139.25537109375	-207.9015045166016	-909.3930053710938	1128.939331054688	-304.2705688476562	-743.1282348632812	947.1397705078125	-191.6364288330078	-818.3156127929688	910.6721801757812	-161.0491790771484	-893.6722412109375	1069.871215820312	-182.3899688720703	-668.1468505859375	773.3469848632812	-193.6869812011719	-695.5800170898438	867.9038696289062	-172.4492340087891	-768.7943725585938	839.3884887695312	-152.4524078369141	-858.4983520507812	1667.650756835938	-441.0686950683594	-663.5037841796875	1726.45849609375	-514.037353515625	-701.1015625	1717.805297851562	-390.5277099609375	-827.3646850585938	1684.192016601562	-574.2612915039062	-792.7772827148438	990.2386474609375	-681.4832763671875	-854.2454223632812	1001.539611816406	-312.2987670898438	-762.1004638671875	1029.743408203125	-339.20703125	-695.6791381835938	1029.924194335938	-588.4114379882812	-572.2316284179688	527.572265625	-593.8717041015625	-628.205322265625	661.30712890625	-634.464599609375	-672.3873901367188	52.90598297119141	-626.3392333984375	-615.7250366210938	298.3127136230469	-623.0009155273438	-478.250244140625	74.72241973876953	-545.5999145507812	-534.3796997070312	65.91651916503906	-512.490234375	-560.0423583984375	42.37751770019531	-631.5108642578125	-739.3407592773438	60.89104080200195	-575.0636596679688	-842.1952514648438	501.1272583007812	-391.4587707519531	-805.4398803710938	764.827392578125	-314.3491821289062	-938.1492919921875	34.46530532836914	-485.6115417480469	-828.9256591796875	383.7747497558594	-424.1881103515625	-714.8662109375	42.20679473876953	-456.4472351074219	-754.8837280273438	38.83896636962891	-512.9927368164062	-841.3754272460938	36.841064453125	-420.1815490722656	-967.8011474609375	32.31770324707031	-565.8798828125	
194	1.93	-956.1499633789062	1048.63037109375	-476.3963012695312	-918.8694458007812	1049.21875	-593.0357055664062	-936.8213500976562	1087.981079101562	-528.8717041015625	-673.92041015625	1284.993286132812	-456.1638488769531	-958.5609741210938	1249.01806640625	-532.40234375	-878.7672119140625	1514.322998046875	-522.863525390625	-691.170654296875	1400.702392578125	-471.8736267089844	-976.3403930664062	1343.221801757812	-434.7876586914062	-861.1436767578125	1488.083251953125	-622.02685546875	-769.4754028320312	1472.275756835938	-679.7965087890625	-791.423828125	1343.442016601562	-760.003173828125	-781.7810668945312	1126.700317382812	-783.748779296875	-839.4698486328125	1106.83447265625	-720.2628784179688	-628.583251953125	930.733642578125	-720.7261352539062	-696.488525390625	884.8936157226562	-770.000732421875	-745.003173828125	1019.064880371094	-789.1779174804688	-576.3170166015625	759.683349609375	-677.0057983398438	-658.0127563476562	824.2659912109375	-757.6133422851562	-596.8016967773438	855.5311279296875	-731.8536987304688	-861.3364868164062	1491.163208007812	-332.4209289550781	-897.394775390625	1426.20556640625	-268.8093872070312	-918.5637817382812	1137.761474609375	-205.6300506591797	-902.005126953125	1127.50732421875	-302.0011901855469	-735.887451171875	945.5448608398438	-189.5340118408203	-811.0601806640625	909.191650390625	-158.76806640625	-886.320068359375	1068.419799804688	-180.1370086669922	-661.236572265625	771.5588989257812	-191.9088439941406	-688.3737182617188	866.1695556640625	-170.5251007080078	-761.6559448242188	837.7974243164062	-150.3353424072266	-850.569580078125	1666.588256835938	-438.8462524414062	-655.2998657226562	1724.992919921875	-511.4560546875	-693.2714233398438	1716.811645507812	-388.0265808105469	-819.0448608398438	1682.626586914062	-571.9962768554688	-782.7757568359375	988.8947143554688	-678.0931396484375	-848.7759399414062	1000.5322265625	-309.7496948242188	-756.2466430664062	1028.67236328125	-335.5342712402344	-686.6538696289062	1028.659057617188	-583.8386840820312	-562.97021484375	526.912841796875	-587.5891723632812	-619.0684814453125	659.9367065429688	-629.6649169921875	-638.90625	47.79855728149414	-615.8160400390625	-595.0388793945312	296.0878295898438	-614.8150634765625	-448.2854309082031	79.64353942871094	-530.4218139648438	-504.8099670410156	68.89087677001953	-498.6482238769531	-526.1687622070312	42.21572875976562	-617.83740234375	-707.3087158203125	53.45926284790039	-566.3660278320312	-839.1671752929688	500.1060180664062	-389.6787109375	-801.27294921875	763.6607055664062	-311.6654052734375	-938.1050415039062	34.5412712097168	-485.7155151367188	-826.321044921875	382.8617248535156	-422.8519897460938	-714.5982666015625	41.83175659179688	-456.089599609375	-754.723388671875	38.80746459960938	-512.8455810546875	-841.3888549804688	36.6289176940918	-419.9348449707031	-967.6790161132812	32.50837326049805	-566.0748901367188	
195	1.94	-948.4127807617188	1047.290283203125	-475.1304931640625	-909.6564331054688	1047.716064453125	-591.2745971679688	-928.6539306640625	1086.432861328125	-527.4002685546875	-666.214111328125	1283.564697265625	-452.3888244628906	-950.246826171875	1247.638793945312	-530.8492431640625	-870.605712890625	1513.04345703125	-520.7233276367188	-683.2767944335938	1399.2744140625	-468.3880920410156	-968.783447265625	1341.938354492188	-433.2629089355469	-852.2339477539062	1486.539306640625	-619.6723022460938	-760.32177734375	1470.651977539062	-676.8972778320312	-782.0504150390625	1341.8076171875	-757.13232421875	-772.8109741210938	1125.098388671875	-780.7923583984375	-830.6708374023438	1105.36962890625	-717.4300537109375	-621.220703125	927.8924560546875	-717.6458740234375	-688.9071655273438	882.8243408203125	-767.3369750976562	-736.5924682617188	1017.303771972656	-786.3462524414062	-569.7189331054688	756.704345703125	-674.3897094726562	-650.8421020507812	821.9366455078125	-754.996826171875	-589.502197265625	852.7787475585938	-729.0697631835938	-854.2869873046875	1489.782470703125	-330.0399780273438	-890.6529541015625	1424.761962890625	-266.583251953125	-911.256103515625	1136.150146484375	-203.50732421875	-894.569091796875	1125.968017578125	-299.8707580566406	-728.8299560546875	943.6900634765625	-187.4503173828125	-804.0305786132812	907.529296875	-156.5520477294922	-879.0523681640625	1066.841796875	-178.0172424316406	-654.670166015625	769.4476928710938	-190.0804901123047	-681.4449462890625	864.1392822265625	-168.5662078857422	-754.8272094726562	835.9796752929688	-148.2487182617188	-842.586669921875	1665.446899414062	-436.6368103027344	-647.0226440429688	1723.457763671875	-508.8309020996094	-685.4053344726562	1715.73388671875	-385.4903869628906	-810.636474609375	1680.994750976562	-569.7291870117188	-772.6869506835938	987.4415283203125	-674.5899658203125	-843.158447265625	999.4503784179688	-307.1396484375	-750.2326049804688	1027.540161132812	-331.8335876464844	-677.5181274414062	1027.27880859375	-579.2008056640625	-553.9536743164062	526.0015258789062	-581.4388427734375	-610.0325317382812	658.3367309570312	-625.0306396484375	-606.0640869140625	43.78122329711914	-605.0042724609375	-574.7860107421875	294.2804565429688	-606.5443725585938	-419.4393005371094	85.28392791748047	-515.1267700195312	-476.2934875488281	72.64490509033203	-484.6932373046875	-493.2264099121094	43.06188583374023	-603.9197387695312	-675.7431640625	47.08214950561523	-557.382080078125	-835.8033447265625	499.006103515625	-387.8719177246094	-796.8841552734375	762.436279296875	-308.9429016113281	-938.0447998046875	34.6357421875	-485.8296203613281	-823.4483032226562	381.8538818359375	-421.5360412597656	-714.315185546875	41.48081970214844	-455.76416015625	-754.565185546875	38.77053833007812	-512.7383422851562	-841.3732299804688	36.43450546264648	-419.7113647460938	-967.522705078125	32.70518112182617	-566.2604370117188	
196	1.95	-940.53564453125	1045.872436523438	-473.762939453125	-900.3192138671875	1046.135986328125	-589.4143676757812	-920.382568359375	1084.783935546875	-525.8432006835938	-658.4146728515625	1282.09130859375	-448.5683898925781	-941.828857421875	1246.170532226562	-529.2883911132812	-862.3685913085938	1511.701049804688	-518.626220703125	-675.3018798828125	1397.795288085938	-464.8684692382812	-961.162109375	1340.578735351562	-431.77734375	-843.22900390625	1484.930419921875	-617.3397216796875	-751.0557861328125	1468.939575195312	-673.9931030273438	-772.5276489257812	1340.066284179688	-754.2372436523438	-763.6909790039062	1123.394653320312	-777.7718505859375	-821.7322998046875	1103.829956054688	-714.5269165039062	-614.0637817382812	924.6390991210938	-714.6048583984375	-681.52978515625	880.5587158203125	-764.7744750976562	-728.176025390625	1015.417114257812	-783.51416015625	-563.5147094726562	753.27001953125	-671.9834594726562	-643.9696044921875	819.3411865234375	-752.5333862304688	-582.4503784179688	849.63671875	-726.4324951171875	-847.2203369140625	1488.336791992188	-327.6816101074219	-883.9022216796875	1423.224243164062	-264.4041137695312	-903.968994140625	1134.438110351562	-201.5394592285156	-887.0867919921875	1124.341430664062	-297.8868408203125	-721.95751953125	941.5943603515625	-185.3776702880859	-797.2315673828125	905.7029418945312	-154.4050140380859	-871.87158203125	1065.152465820312	-176.0377960205078	-648.4482421875	767.03125	-188.1850738525391	-674.7994384765625	861.8324584960938	-166.560546875	-748.3082275390625	833.9552612304688	-146.1887664794922	-834.5481567382812	1664.233520507812	-434.4432373046875	-638.6716918945312	1721.865234375	-506.1599426269531	-677.507568359375	1714.583740234375	-382.9176940917969	-802.1372680664062	1679.303466796875	-567.4636840820312	-762.5122680664062	985.9036254882812	-670.9813842773438	-837.3623657226562	998.2885131835938	-304.4674072265625	-744.0382690429688	1026.34765625	-328.1096496582031	-668.2788696289062	1025.807373046875	-574.5078125	-545.13134765625	524.88671875	-575.4237670898438	-601.048583984375	656.5606689453125	-620.5343627929688	-574.069091796875	40.83668899536133	-593.9776611328125	-555.0484619140625	292.9074096679688	-598.2334594726562	-391.8132934570312	91.57288360595703	-499.876953125	-448.9255065917969	77.10630798339844	-470.7592468261719	-461.4052429199219	44.87113952636719	-589.8897705078125	-644.8502807617188	41.76253509521484	-548.154052734375	-832.10546875	497.8337707519531	-386.0453796386719	-792.257080078125	761.1491088867188	-306.1901550292969	-937.9661865234375	34.75222015380859	-485.9540405273438	-820.3167114257812	380.7523803710938	-420.2378234863281	-714.02880859375	41.15329360961914	-455.4771728515625	-754.4086303710938	38.72729110717773	-512.6659545898438	-841.3363037109375	36.26023864746094	-419.5138244628906	-967.3357543945312	32.91321563720703	-566.4393310546875	
